<svg width="22" height="20" xmlns="http://www.w3.org/2000/svg">

 <g>
  <title>background</title>
  <rect fill="none" id="canvas_background" height="402" width="582" y="-1" x="-1"/>
 </g>
 <g>
  <title>Layer 1</title>
  <path id="svg_1" fill="#666666" d="m1.6666,11.3334l15.8133,0l-4.84,5.8133c-0.2263,0.2723 -0.3352,0.6233 -0.3027,0.9759c0.0325,0.3526 0.2038,0.6778 0.4761,0.9041c0.2723,0.2263 0.6233,0.3352 0.9759,0.3027c0.3525,-0.0325 0.6777,-0.2038 0.9041,-0.476l6.6666,-8c0.0449,-0.0637 0.085,-0.1305 0.12,-0.2c0,-0.0667 0,-0.1067 0.0934,-0.1734c0.0604,-0.1529 0.092,-0.3156 0.0933,-0.48c-0.0013,-0.16437 -0.0329,-0.3271 -0.0933,-0.47998c0,-0.06667 0,-0.10667 -0.0934,-0.17333c-0.035,-0.06952 -0.0751,-0.13637 -0.12,-0.2l-6.6666,-8c-0.1254,-0.150512 -0.2824,-0.271553 -0.4598,-0.354515c-0.1775,-0.082962 -0.371,-0.125807 -0.5669,-0.125488c-0.3115,-0.000608 -0.6135,0.107891 -0.8533,0.306665c-0.135,0.111938 -0.2467,0.249398 -0.3285,0.404528c-0.0818,0.15513 -0.1322,0.32487 -0.1483,0.49951c-0.0161,0.17464 0.0025,0.35073 0.0545,0.5182c0.0521,0.16747 0.1367,0.32303 0.2489,0.45776l4.84,5.81334l-15.8133,0c-0.35362,0 -0.692763,0.14047 -0.942811,0.39052c-0.250049,0.25005 -0.390524,0.58919 -0.390524,0.94279c0,0.3536 0.140475,0.6928 0.390524,0.9428c0.250048,0.2501 0.589191,0.3906 0.942811,0.3906z"/>
 </g>
</svg>